<svg width="74" height="74" viewBox="0 0 74 74" fill="none" xmlns="http://www.w3.org/2000/svg">
<path d="M37 0C16.5653 0 0 16.5653 0 37C0 57.4347 16.5653 74 37 74C57.4347 74 74 57.4347 74 37C74 16.5653 57.4347 0 37 0Z" fill="#40B3E0"/>
<path d="M55.0037 21.2837L48.3948 54.6036C48.3948 54.6036 47.4707 56.9144 44.929 55.8052L29.6786 44.1133L24.1332 41.4331L14.7983 38.2904C14.7983 38.2904 13.3657 37.7822 13.2269 36.6731C13.0882 35.5639 14.8445 34.9633 14.8445 34.9633L51.9532 20.4061C51.9532 20.4061 55.0034 19.066 55.0034 21.2843" fill="white"/>
<path d="M28.5068 54.229C28.5068 54.229 28.0616 54.1874 27.5066 52.431C26.9525 50.675 24.1332 41.4325 24.1332 41.4325L46.5466 27.199C46.5466 27.199 47.8407 26.4134 47.7945 27.199C47.7945 27.199 48.0254 27.3378 47.332 27.9847C46.6391 28.6319 29.7252 43.8358 29.7252 43.8358" fill="#D2E5F1"/>
<path d="M35.5261 48.5957L29.4942 54.0954C29.4942 54.0954 29.0225 54.4533 28.5068 54.229L29.6619 44.0135" fill="#B5CFE4"/>
</svg>
